HIERARCHY
ROOT Hips
{
	OFFSET	0.00	0.00	0.00
	CHANNELS 6 Xposition Yposition Zposition Zrotation Xrotation Yrotation
	JOINT LeftUpLeg
	{
		OFFSET	 0.126116	-0.014019	-0.065224
		CHANNELS 3 Zrotation Xrotation Yrotation
		JOINT LeftLeg
		{
			OFFSET	 0.000000	 0.000000	 0.569914
			CHANNELS 3 Zrotation Xrotation Yrotation
			JOINT LeftFoot
			{
				OFFSET	 0.000000	 0.000000	 0.544423
				CHANNELS 3 Zrotation Xrotation Yrotation
				JOINT LeftToeBase
				{
					OFFSET	 0.000000	 0.000000	 0.207117
					CHANNELS 3 Zrotation Xrotation Yrotation
					End Site
					{
						OFFSET	 0.000000	 0.000000	 0.207117
					}
				}
			}
		}
	}
	JOINT RightUpLeg
	{
		OFFSET	-0.124023	-0.008373	-0.065224
		CHANNELS 3 Zrotation Xrotation Yrotation
		JOINT RightLeg
		{
			OFFSET	 0.000000	 0.000000	 0.570047
			CHANNELS 3 Zrotation Xrotation Yrotation
			JOINT RightFoot
			{
				OFFSET	 0.000000	 0.000000	 0.544354
				CHANNELS 3 Zrotation Xrotation Yrotation
				JOINT RightToeBase
				{
					OFFSET	 0.000000	 0.000000	 0.207540
					CHANNELS 3 Zrotation Xrotation Yrotation
					End Site
					{
						OFFSET	 0.000000	 0.000000	 0.207540
					}
				}
			}
		}
	}
	JOINT Spine
	{
		OFFSET	 0.000184	-0.007763	 0.117403
		CHANNELS 3 Zrotation Xrotation Yrotation
		JOINT Spine1
		{
			OFFSET	 0.000000	 0.000000	 0.137269
			CHANNELS 3 Zrotation Xrotation Yrotation
			JOINT Spine2
			{
				OFFSET	 0.000000	 0.000000	 0.156879
				CHANNELS 3 Zrotation Xrotation Yrotation
				JOINT LeftShoulder
				{
					OFFSET	 0.080501	-0.002496	 0.160144
					CHANNELS 3 Zrotation Xrotation Yrotation
					JOINT LeftArm
					{
						OFFSET	 0.000000	 0.000000	 0.164363
						CHANNELS 3 Zrotation Xrotation Yrotation
						JOINT LeftForeArm
						{
							OFFSET	 0.000000	 0.000000	 0.364576
							CHANNELS 3 Zrotation Xrotation Yrotation
							JOINT LeftHand
							{
								OFFSET	 0.000000	 0.000000	 0.360812
								CHANNELS 3 Zrotation Xrotation Yrotation
								JOINT LeftHandIndex1
								{
									OFFSET	 0.000000	 0.000000	 0.086006
									CHANNELS 3 Zrotation Xrotation Yrotation
									JOINT LeftHandIndex2
									{
										OFFSET	 0.000000	 0.000000	 0.047236
										CHANNELS 3 Zrotation Xrotation Yrotation
										JOINT LeftHandIndex3
										{
											OFFSET	-0.004284	-0.000551	 0.038166
											CHANNELS 3 Zrotation Xrotation Yrotation
											End Site
											{
												OFFSET	-0.004284	-0.000551	 0.038166
											}
										}
									}
								}
							}
						}
					}
				}
				JOINT Neck
				{
					OFFSET	 0.000000	 0.000000	 0.176489
					CHANNELS 3 Zrotation Xrotation Yrotation
					JOINT Head
					{
						OFFSET	 0.000000	-0.001747	 0.077940
						CHANNELS 3 Zrotation Xrotation Yrotation
						End Site
						{
							OFFSET	 0.000000	-0.001747	 0.077940
						}
					}
				}
				JOINT RightShoulder
				{
					OFFSET	-0.080363	 0.000306	 0.159706
					CHANNELS 3 Zrotation Xrotation Yrotation
					JOINT RightArm
					{
						OFFSET	 0.000000	 0.000000	 0.164196
						CHANNELS 3 Zrotation Xrotation Yrotation
						JOINT RightForeArm
						{
							OFFSET	 0.000000	 0.000000	 0.365611
							CHANNELS 3 Zrotation Xrotation Yrotation
							JOINT RightHand
							{
								OFFSET	 0.000000	 0.000000	 0.360648
								CHANNELS 3 Zrotation Xrotation Yrotation
								JOINT RightHandIndex1
								{
									OFFSET	 0.000000	 0.000000	 0.069977
									CHANNELS 3 Zrotation Xrotation Yrotation
									JOINT RightHandIndex2
									{
										OFFSET	 0.000000	 0.000000	 0.052305
										CHANNELS 3 Zrotation Xrotation Yrotation
										JOINT RightHandIndex3
										{
											OFFSET	 0.009002	-0.000782	 0.042196
											CHANNELS 3 Zrotation Xrotation Yrotation
											End Site
											{
												OFFSET	 0.009002	-0.000782	 0.042196
											}
										}
									}
								}
							}
						}
					}
				}
			}
		}
	}
}
MOTION
Frames:    10
Frame Time: 0.03333334
 0.011867	 0.061751	 1.201055	 4.162552	-1.827204	-3.705261	 19.171400	-10.311500	-175.257800	 0.348978	-39.306740	-0.012362	 60.707390	 82.440670	-64.053280	-2.371206	 31.308870	-0.063011	-21.849040	-31.091390	-174.501200	 10.222650	-52.891430	 8.768164	 5.050982	 70.683330	 1.515195	 2.357908	 33.155960	 0.106846	 0.936618	 8.951309	 0.851973	 1.937376	 3.485715	 3.377664	-9.422638	-2.714655	-4.408370	-93.780330	 58.852950	 175.738500	 11.754940	 29.043680	-42.245120	-1.110813	-0.045469	-0.768712	 0.295775	-7.885541	-6.014992	-4.870886	 19.206670	-2.784910	-3.886251	 21.412350	 2.207548	-4.808010	 5.548485	 0.146793	-0.123669	-5.018105	 0.159798	-11.473240	 1.622151	 2.164230	 89.829660	 61.584930	-179.886900	-18.738640	 48.692870	 11.055070	-0.707198	-1.421420	 8.275011	-4.853973	 6.119271	 0.751683	 6.303844	 25.930670	-0.575415	 1.736798	 45.874810	-6.860127	 0.361242	 24.995420	 3.652760
 0.010064	 0.020294	 1.193342	 4.842879	-1.499651	-3.684868	 19.534260	-9.154288	-176.333700	 0.810654	-40.448500	 0.297098	 79.458400	 84.103060	-83.025480	-2.370046	 31.506100	-0.067466	-25.276150	-34.699810	-176.729300	 10.093310	-49.200980	 8.256473	-0.098956	 71.307780	 7.187902	 2.358601	 33.054630	 0.104491	-6.279019	 8.880732	 0.781961	 1.790020	 3.425601	 3.307287	-9.495276	-2.558868	-4.300736	-93.906490	 58.925300	 175.461200	 10.048260	 26.127890	-42.766120	-4.903514	 0.096424	-2.171475	-0.046641	-7.925407	-7.215165	-4.870352	 19.232850	-2.789169	-3.880742	 21.482850	 2.201956	-4.806739	 5.563395	 0.145921	-0.086088	-5.062987	 0.178957	-11.432090	 1.782000	 2.036049	 89.790150	 61.634080	-179.980900	-18.678760	 49.662860	 8.353379	 2.153037	-1.165437	 11.772670	-4.174933	 6.581354	 0.527286	 6.295253	 25.036190	-0.548109	 1.860813	 44.899390	-6.971103	 0.501809	 24.383390	 3.580688
 0.008750	-0.009244	 1.188293	 5.234808	-1.269568	-3.680266	 19.700160	-8.127596	-177.118800	 1.064477	-40.821250	 0.465291	 95.864490	 84.806350	-99.490460	-2.369377	 31.619130	-0.070020	-27.414690	-36.359930	-178.494000	 9.772950	-45.310130	 7.528489	-4.152396	 70.390720	 11.635170	 2.358916	 33.007890	 0.103404	-10.232730	 8.805113	 0.742797	 1.668984	 3.448423	 3.249812	-9.518498	-2.499432	-4.229529	-93.985180	 58.960800	 175.289100	 8.814694	 24.192720	-43.100890	-6.931003	 0.239196	-2.932411	-0.205796	-7.957688	-7.831718	-4.869275	 19.265600	-2.792432	-3.876995	 21.530730	 2.198147	-4.805885	 5.573459	 0.145336	-0.064795	-5.086114	 0.194303	-11.390490	 1.880987	 1.972691	 89.763670	 61.672180	 179.956000	-18.621600	 50.253480	 7.053679	 3.647124	-0.789693	 12.746830	-3.842921	 6.856795	 0.382339	 6.289330	 24.479370	-0.538648	 1.933365	 44.310820	-7.035735	 0.598942	 23.956510	 3.531608
 0.006487	-0.054744	 1.179683	 5.760356	-0.786949	-3.695271	 20.001310	-6.573781	-178.335200	 1.292323	-41.169210	 0.618556	 123.961300	 85.042000	-127.539800	-2.368467	 31.768710	-0.073412	-30.723230	-37.938680	 178.493400	 9.444897	-38.188630	 6.349330	-10.397770	 68.652010	 18.245690	 2.359009	 32.993900	 0.103083	-15.788350	 8.553580	 0.669800	 1.461210	 3.439162	 3.208297	-9.522473	-2.403778	-4.139880	-94.116730	 58.982110	 175.005900	 6.984312	 21.514870	-43.479650	-9.613312	 0.526017	-4.026065	-0.269529	-8.085444	-8.366051	-4.864647	 19.383890	-2.800196	-3.869560	 21.625580	 2.190597	-4.804218	 5.593171	 0.144180	-0.037756	-5.105838	 0.233040	-11.318370	 2.036233	 1.925508	 89.712620	 61.764580	 179.833600	-18.432940	 50.973570	 5.905100	 5.613573	-0.068562	 12.439670	-3.470756	 7.267931	 0.119512	 6.276373	 23.556180	-0.551562	 2.041505	 43.407730	-7.131662	 0.798225	 23.070410	 3.432770
 0.004356	-0.090362	 1.171152	 6.138470	-0.376410	-3.758315	 20.360020	-5.425748	-179.322300	 1.466718	-41.529410	 0.738636	 145.217300	 84.453200	-148.737600	-2.367527	 31.923130	-0.076918	-33.259070	-39.049350	 176.052300	 9.425551	-33.443390	 5.653678	-14.825980	 68.446090	 22.563770	 2.359475	 32.925740	 0.101502	-20.180500	 8.318333	 0.656300	 1.291072	 3.322201	 3.176167	-9.482840	-2.260523	-4.048623	-94.223850	 58.993050	 174.775900	 5.729162	 19.777250	-43.667330	-11.906990	 0.835501	-4.915670	-0.450106	-8.244912	-8.610526	-4.859225	 19.514850	-2.807247	-3.862318	 21.717770	 2.183236	-4.801590	 5.624066	 0.142369	-0.018992	-5.128859	 0.265955	-11.231530	 2.170253	 1.905132	 89.660890	 61.843330	 179.709000	-18.161890	 51.307490	 5.664647	 7.155707	 0.552679	 11.049820	-3.211556	 7.630031	-0.216335	 6.263578	 22.712300	-0.569844	 2.130646	 42.639230	-7.210351	 0.983002	 22.236660	 3.343432
 0.001905	-0.126268	 1.159860	 6.382211	 0.071384	-3.957136	 20.984190	-4.279870	 179.683300	 1.603389	-42.100380	 0.838569	 162.642200	 83.141670	-166.052700	-2.366058	 32.158280	-0.082288	-35.590610	-41.556390	 173.413700	 9.814323	-31.354980	 5.547060	-18.920210	 68.683750	 26.477870	 2.360886	 32.714520	 0.096606	-24.605780	 8.012397	 0.776024	 1.131476	 3.258991	 3.131715	-9.384963	-2.100781	-3.940645	-94.329970	 58.987190	 174.550500	 4.539342	 18.295850	-43.901240	-14.626190	 1.247043	-5.861783	-0.928331	-8.568621	-8.366219	-4.849653	 19.731990	-2.816055	-3.852154	 21.846710	 2.172915	-4.795814	 5.692130	 0.138378	-0.008775	-5.169234	 0.301953	-11.115160	 2.318614	 1.927518	 89.584050	 61.930000	 179.522900	-17.759900	 51.446960	 5.861830	 8.657418	 1.150798	 8.963933	-3.046658	 8.058614	-0.852050	 6.245116	 21.645090	-0.607278	 2.225534	 41.796430	-7.293706	 1.224614	 21.128890	 3.230013
-0.000690	-0.159129	 1.147950	 6.542933	 0.397306	-4.136679	 21.593030	-3.141680	 178.648600	 1.713376	-42.647790	 0.921927	 174.122700	 81.694370	-177.378800	-2.363572	 32.547050	-0.091209	-37.523220	-44.633940	 170.884900	 10.174560	-31.478780	 5.758597	-24.712260	 71.314830	 31.994850	 2.359312	 32.951030	 0.102078	-28.415400	 7.753231	 0.904152	 0.986001	 3.256407	 3.048113	-9.236570	-1.951384	-3.804907	-94.408640	 58.978310	 174.384300	 3.480435	 17.215930	-44.121440	-17.073170	 1.689472	-6.709077	-1.464673	-8.735640	-8.136138	-4.839550	 19.945830	-2.821214	-3.840990	 21.987980	 2.161569	-4.786952	 5.796296	 0.132254	 0.003696	-5.213873	 0.326703	-10.953630	 2.453126	 1.937623	 89.517720	 61.994610	 179.361600	-17.270000	 51.446060	 6.188024	 10.001180	 1.620854	 6.787488	-2.856926	 8.380907	-1.585842	 6.224987	 20.543480	-0.648870	 2.345679	 40.691100	-7.398608	 1.464336	 20.010390	 3.121419
-0.003029	-0.187856	 1.137568	 6.605222	 0.574631	-4.276253	 22.145580	-1.980258	 177.671500	 1.781486	-42.887180	 0.972463	-178.187300	 80.548450	 175.114200	-2.360183	 33.057000	-0.102986	-38.729460	-47.137910	 168.979700	 10.321520	-32.271380	 5.968817	-34.013890	 75.288730	 40.885020	 2.354671	 33.617680	 0.117647	-31.389160	 7.561408	 1.028223	 0.852163	 3.278271	 2.924448	-9.058327	-1.807981	-3.649552	-94.452850	 58.967050	 174.291800	 2.594148	 16.522920	-44.246330	-19.069460	 2.103961	-7.392516	-2.007914	-8.734742	-7.938777	-4.829782	 20.137980	-2.822255	-3.829754	 22.129540	 2.150155	-4.775749	 5.927883	 0.124497	 0.017356	-5.259035	 0.338014	-10.769940	 2.560859	 1.934420	 89.467490	 62.031410	 179.239200	-16.787020	 51.573170	 5.260174	 10.987360	 2.029589	 7.474658	-2.655950	 8.569809	-2.352119	 6.204871	 19.501690	-0.691055	 2.478556	 39.416380	-7.513747	 1.682270	 18.977050	 3.026195
-0.006037	-0.225253	 1.125573	 6.727046	 0.704508	-4.409179	 22.781910	-0.313982	 176.357300	 1.892554	-42.683140	 1.044051	-170.367700	 79.527020	 167.513100	-2.353147	 34.053630	-0.126321	-40.303340	-49.285490	 166.898100	 10.705000	-33.264420	 6.346622	-49.277400	 78.687230	 55.535300	 2.347391	 34.598830	 0.140891	-34.760870	 7.485291	 1.147185	 0.643548	 2.960067	 2.779665	-8.786973	-1.528956	-3.442263	-94.499160	 58.943920	 174.197100	 1.599154	 15.951750	-44.119860	-21.280160	 2.652311	-8.186460	-2.658466	-8.930588	-7.935963	-4.828409	 20.326800	-2.870196	-3.814307	 22.323240	 2.134469	-4.757877	 6.137215	 0.112089	 0.046191	-5.316046	 0.348166	-10.482620	 2.720339	 1.880714	 89.414250	 62.035720	 179.110400	-16.116790	 51.628390	 4.098961	 12.169830	 2.571926	 8.271926	-2.302252	 8.621334	-3.264774	 6.183642	 18.185350	-0.714216	 2.642788	 37.760840	-7.654656	 1.953354	 17.670190	 2.912517
-0.008785	-0.261872	 1.115962	 6.885983	 0.725881	-4.487574	 23.342010	 1.559277	 175.036500	 2.014210	-41.800290	 1.107622	-163.437200	 79.100690	 160.771000	-2.343018	 35.361710	-0.157604	-41.773200	-49.907010	 165.463200	 11.295180	-33.849880	 6.782762	-64.353370	 80.378410	 69.869730	 2.338815	 35.664620	 0.166640	-37.560170	 7.591564	 1.225118	 0.386950	 2.273258	 2.627520	-8.488755	-1.158039	-3.224888	-94.532150	 58.912730	 174.132000	 0.771807	 15.681460	-43.657080	-23.030150	 3.178929	-8.857187	-3.225915	-9.320461	-8.202300	-4.838683	 20.445800	-2.964812	-3.798525	 22.520240	 2.118432	-4.737166	 6.378980	 0.097675	 0.085520	-5.369334	 0.353263	-10.159090	 2.891895	 1.777464	 89.375180	 61.994650	 179.017500	-15.432680	 51.584650	 2.998335	 13.216050	 3.095144	 8.947219	-1.865073	 8.474112	-4.053675	 6.169269	 16.954160	-0.704006	 2.793007	 36.164490	-7.782081	 2.202908	 16.446610	 2.812675
